<svg xmlns="http://www.w3.org/2000/svg" viewBox="0 0 18200 200" width="18200" height="200"><g fill="#ffffff" stroke="#000000" stroke-miterlimit="10"><path d="M100 15.09c-22.511 0-44.123 8.952-60.04 24.87C24.042 55.877 15.09 77.489 15.09 100c0 22.511 8.952 44.123 24.87 60.04 15.917 15.918 37.529 24.87 60.04 24.87 22.511 0 44.123-8.952 60.04-24.87 15.918-15.917 24.87-37.529 24.87-60.04 0-22.511-8.952-44.123-24.87-60.04-15.917-15.918-37.529-24.87-60.04-24.87z" stroke-width="20" stroke-dasharray="0,533.4973315674285" stroke-dashoffset="533.497332"/><path d="M50.7 104.76l28.56 28.57 70.04-66.66" stroke-width="5" stroke-dasharray="0,137.0880509438512" stroke-dashoffset="137.088051"/></g><g fill="#ffffff" stroke-miterlimit="10"><path d="M300 15.09c-22.511 0-44.123 8.952-60.04 24.87-15.918 15.917-24.87 37.529-24.87 60.04 0 22.511 8.952 44.123 24.87 60.04 15.917 15.918 37.529 24.87 60.04 24.87 22.511 0 44.123-8.952 60.04-24.87 15.918-15.917 24.87-37.529 24.87-60.04 0-22.511-8.952-44.123-24.87-60.04-15.917-15.918-37.529-24.87-60.04-24.87z" stroke="#000000" stroke-width="20" stroke-dasharray="0,533.4973315674285" stroke-dashoffset="533.497332"/><path d="M250.7 104.76l28.56 28.57 70.04-66.66" stroke="#020204" stroke-width="5" stroke-dasharray="2.2848008490641862,134.803250094787" stroke-dashoffset="137.088051"/></g><g fill="#ffffff" stroke-miterlimit="10"><path d="M500 15.09c-22.511 0-44.123 8.952-60.04 24.87-15.918 15.917-24.87 37.529-24.87 60.04 0 22.511 8.952 44.123 24.87 60.04 15.917 15.918 37.529 24.87 60.04 24.87 22.511 0 44.123-8.952 60.04-24.87 15.918-15.917 24.87-37.529 24.87-60.04 0-22.511-8.952-44.123-24.87-60.04-15.917-15.918-37.529-24.87-60.04-24.87z" stroke="#000000" stroke-width="20" stroke-dasharray="0,533.4973315674285" stroke-dashoffset="533.497332"/><path d="M450.7 104.76l28.56 28.57 70.04-66.66" stroke="#030508" stroke-width="5" stroke-dasharray="4.5696016981283725,132.51844924572282" stroke-dashoffset="137.088051"/></g><g fill="#ffffff" stroke-miterlimit="10"><path d="M700 15.09c-22.511 0-44.123 8.952-60.04 24.87-15.918 15.917-24.87 37.529-24.87 60.04 0 22.511 8.952 44.123 24.87 60.04 15.917 15.918 37.529 24.87 60.04 24.87 22.511 0 44.123-8.952 60.04-24.87 15.918-15.917 24.87-37.529 24.87-60.04 0-22.511-8.952-44.123-24.87-60.04-15.917-15.918-37.529-24.87-60.04-24.87z" stroke="#000000" stroke-width="20" stroke-dasharray="0,533.4973315674285" stroke-dashoffset="533.497332"/><path d="M650.7 104.76l28.56 28.57 70.04-66.66" stroke="#05070c" stroke-width="5" stroke-dasharray="6.85440254719256,130.23364839665862" stroke-dashoffset="137.088051"/></g><g fill="#ffffff" stroke-miterlimit="10"><path d="M900 15.09c-22.511 0-44.123 8.952-60.04 24.87-15.918 15.917-24.87 37.529-24.87 60.04 0 22.511 8.952 44.123 24.87 60.04 15.917 15.918 37.529 24.87 60.04 24.87 22.511 0 44.123-8.952 60.04-24.87 15.918-15.917 24.87-37.529 24.87-60.04 0-22.511-8.952-44.123-24.87-60.04-15.917-15.918-37.529-24.87-60.04-24.87z" stroke="#000000" stroke-width="20" stroke-dasharray="0,533.4973315674285" stroke-dashoffset="533.497332"/><path d="M850.7 104.76l28.56 28.57 70.04-66.66" stroke="#070a10" stroke-width="5" stroke-dasharray="9.139203396256745,127.94884754759444" stroke-dashoffset="137.088051"/></g><g fill="#ffffff" stroke-miterlimit="10"><path d="M1100 15.09c-22.511 0-44.123 8.952-60.04 24.87-15.918 15.917-24.87 37.529-24.87 60.04 0 22.511 8.952 44.123 24.87 60.04 15.917 15.918 37.529 24.87 60.04 24.87 22.511 0 44.123-8.952 60.04-24.87 15.918-15.917 24.87-37.529 24.87-60.04 0-22.511-8.952-44.123-24.87-60.04-15.917-15.918-37.529-24.87-60.04-24.87z" stroke="#000000" stroke-width="20" stroke-dasharray="0,533.4973315674285" stroke-dashoffset="533.497332"/><path d="M1050.7 104.76l28.56 28.57 70.04-66.66" stroke="#080c14" stroke-width="5" stroke-dasharray="11.424004245320932,125.66404669853024" stroke-dashoffset="137.088051"/></g><g fill="#ffffff" stroke-miterlimit="10"><path d="M1300 15.09c-22.511 0-44.123 8.952-60.04 24.87-15.918 15.917-24.87 37.529-24.87 60.04 0 22.511 8.952 44.123 24.87 60.04 15.917 15.918 37.529 24.87 60.04 24.87 22.511 0 44.123-8.952 60.04-24.87 15.918-15.917 24.87-37.529 24.87-60.04 0-22.511-8.952-44.123-24.87-60.04-15.917-15.918-37.529-24.87-60.04-24.87z" stroke="#000000" stroke-width="20" stroke-dasharray="0,533.4973315674285" stroke-dashoffset="533.497332"/><path d="M1250.7 104.76l28.56 28.57 70.04-66.66" stroke="#0a0f18" stroke-width="5" stroke-dasharray="13.70880509438512,123.37924584946607" stroke-dashoffset="137.088051"/></g><g fill="#ffffff" stroke-miterlimit="10"><path d="M1500 15.09c-22.511 0-44.123 8.952-60.04 24.87-15.918 15.917-24.87 37.529-24.87 60.04 0 22.511 8.952 44.123 24.87 60.04 15.917 15.918 37.529 24.87 60.04 24.87 22.511 0 44.123-8.952 60.04-24.87 15.918-15.917 24.87-37.529 24.87-60.04 0-22.511-8.952-44.123-24.87-60.04-15.917-15.918-37.529-24.87-60.04-24.87z" stroke="#000000" stroke-width="20" stroke-dasharray="0,533.4973315674285" stroke-dashoffset="533.497332"/><path d="M1450.7 104.76l28.56 28.57 70.04-66.66" stroke="#0c111c" stroke-width="5" stroke-dasharray="15.993605943449305,121.09444500040188" stroke-dashoffset="137.088051"/></g><g fill="#ffffff" stroke-miterlimit="10"><path d="M1700 15.09c-22.511 0-44.123 8.952-60.04 24.87-15.918 15.917-24.87 37.529-24.87 60.04 0 22.511 8.952 44.123 24.87 60.04 15.917 15.918 37.529 24.87 60.04 24.87 22.511 0 44.123-8.952 60.04-24.87 15.918-15.917 24.87-37.529 24.87-60.04 0-22.511-8.952-44.123-24.87-60.04-15.917-15.918-37.529-24.87-60.04-24.87z" stroke="#000000" stroke-width="20" stroke-dasharray="0,533.4973315674285" stroke-dashoffset="533.497332"/><path d="M1650.7 104.76l28.56 28.57 70.04-66.66" stroke="#0d1420" stroke-width="5" stroke-dasharray="18.27840679251349,118.8096441513377" stroke-dashoffset="137.088051"/></g><g fill="#ffffff" stroke-miterlimit="10"><path d="M1900 15.09c-22.511 0-44.123 8.952-60.04 24.87-15.918 15.917-24.87 37.529-24.87 60.04 0 22.511 8.952 44.123 24.87 60.04 15.917 15.918 37.529 24.87 60.04 24.87 22.511 0 44.123-8.952 60.04-24.87 15.918-15.917 24.87-37.529 24.87-60.04 0-22.511-8.952-44.123-24.87-60.04-15.917-15.918-37.529-24.87-60.04-24.87z" stroke="#000000" stroke-width="20" stroke-dasharray="0,533.4973315674285" stroke-dashoffset="533.497332"/><path d="M1850.7 104.76l28.56 28.57 70.04-66.66" stroke="#0f1624" stroke-width="5" stroke-dasharray="20.563207641577677,116.52484330227351" stroke-dashoffset="137.088051"/></g><g fill="#ffffff" stroke-miterlimit="10"><path d="M2100 15.09c-22.511 0-44.123 8.952-60.04 24.87-15.918 15.917-24.87 37.529-24.87 60.04 0 22.511 8.952 44.123 24.87 60.04 15.917 15.918 37.529 24.87 60.04 24.87 22.511 0 44.123-8.952 60.04-24.87 15.918-15.917 24.87-37.529 24.87-60.04 0-22.511-8.952-44.123-24.87-60.04-15.917-15.918-37.529-24.87-60.04-24.87z" stroke="#000000" stroke-width="20" stroke-dasharray="0,533.4973315674285" stroke-dashoffset="533.497332"/><path d="M2050.7 104.76l28.56 28.57 70.04-66.66" stroke="#111928" stroke-width="5" stroke-dasharray="22.848008490641863,114.24004245320933" stroke-dashoffset="137.088051"/></g><g fill="#ffffff" stroke-miterlimit="10"><path d="M2300 15.09c-22.511 0-44.123 8.952-60.04 24.87-15.918 15.917-24.87 37.529-24.87 60.04 0 22.511 8.952 44.123 24.87 60.04 15.917 15.918 37.529 24.87 60.04 24.87 22.511 0 44.123-8.952 60.04-24.87 15.918-15.917 24.87-37.529 24.87-60.04 0-22.511-8.952-44.123-24.87-60.04-15.917-15.918-37.529-24.87-60.04-24.87z" stroke="#000000" stroke-width="20" stroke-dasharray="0,533.4973315674285" stroke-dashoffset="533.497332"/><path d="M2250.7 104.76l28.56 28.57 70.04-66.66" stroke="#121b2b" stroke-width="5" stroke-dasharray="25.13280933970605,111.95524160414513" stroke-dashoffset="137.088051"/></g><g fill="#ffffff" stroke-miterlimit="10"><path d="M2500 15.09c-22.511 0-44.123 8.952-60.04 24.87-15.918 15.917-24.87 37.529-24.87 60.04 0 22.511 8.952 44.123 24.87 60.04 15.917 15.918 37.529 24.87 60.04 24.87 22.511 0 44.123-8.952 60.04-24.87 15.918-15.917 24.87-37.529 24.87-60.04 0-22.511-8.952-44.123-24.87-60.04-15.917-15.918-37.529-24.87-60.04-24.87z" stroke="#000000" stroke-width="20" stroke-dasharray="0,533.4973315674285" stroke-dashoffset="533.497332"/><path d="M2450.7 104.76l28.56 28.57 70.04-66.66" stroke="#141e2f" stroke-width="5" stroke-dasharray="27.41761018877024,109.67044075508096" stroke-dashoffset="137.088051"/></g><g fill="#ffffff" stroke-miterlimit="10"><path d="M2700 15.09c-22.511 0-44.123 8.952-60.04 24.87-15.918 15.917-24.87 37.529-24.87 60.04 0 22.511 8.952 44.123 24.87 60.04 15.917 15.918 37.529 24.87 60.04 24.87 22.511 0 44.123-8.952 60.04-24.87 15.918-15.917 24.87-37.529 24.87-60.04 0-22.511-8.952-44.123-24.87-60.04-15.917-15.918-37.529-24.87-60.04-24.87z" stroke="#000000" stroke-width="20" stroke-dasharray="0,533.4973315674285" stroke-dashoffset="533.497332"/><path d="M2650.7 104.76l28.56 28.57 70.04-66.66" stroke="#162033" stroke-width="5" stroke-dasharray="29.70241103783442,107.38563990601676" stroke-dashoffset="137.088051"/></g><g fill="#ffffff" stroke-miterlimit="10"><path d="M2900 15.09c-22.511 0-44.123 8.952-60.04 24.87-15.918 15.917-24.87 37.529-24.87 60.04 0 22.511 8.952 44.123 24.87 60.04 15.917 15.918 37.529 24.87 60.04 24.87 22.511 0 44.123-8.952 60.04-24.87 15.918-15.917 24.87-37.529 24.87-60.04 0-22.511-8.952-44.123-24.87-60.04-15.917-15.918-37.529-24.87-60.04-24.87z" stroke="#000000" stroke-width="20" stroke-dasharray="0,533.4973315674285" stroke-dashoffset="533.497332"/><path d="M2850.7 104.76l28.56 28.57 70.04-66.66" stroke="#172337" stroke-width="5" stroke-dasharray="31.98721188689861,105.10083905695257" stroke-dashoffset="137.088051"/></g><g fill="#ffffff" stroke-miterlimit="10"><path d="M3100 15.09c-22.511 0-44.123 8.952-60.04 24.87-15.918 15.917-24.87 37.529-24.87 60.04 0 22.511 8.952 44.123 24.87 60.04 15.917 15.918 37.529 24.87 60.04 24.87 22.511 0 44.123-8.952 60.04-24.87 15.918-15.917 24.87-37.529 24.87-60.04 0-22.511-8.952-44.123-24.87-60.04-15.917-15.918-37.529-24.87-60.04-24.87z" stroke="#000000" stroke-width="20" stroke-dasharray="0,533.4973315674285" stroke-dashoffset="533.497332"/><path d="M3050.7 104.76l28.56 28.57 70.04-66.66" stroke="#19253b" stroke-width="5" stroke-dasharray="34.2720127359628,102.8160382078884" stroke-dashoffset="137.088051"/></g><g fill="#ffffff" stroke-miterlimit="10"><path d="M3300 15.09c-22.511 0-44.123 8.952-60.04 24.87-15.918 15.917-24.87 37.529-24.87 60.04 0 22.511 8.952 44.123 24.87 60.04 15.917 15.918 37.529 24.87 60.04 24.87 22.511 0 44.123-8.952 60.04-24.87 15.918-15.917 24.87-37.529 24.87-60.04 0-22.511-8.952-44.123-24.87-60.04-15.917-15.918-37.529-24.87-60.04-24.87z" stroke="#000000" stroke-width="20" stroke-dasharray="0,533.4973315674285" stroke-dashoffset="533.497332"/><path d="M3250.7 104.76l28.56 28.57 70.04-66.66" stroke="#1b283f" stroke-width="5" stroke-dasharray="36.55681358502698,100.53123735882421" stroke-dashoffset="137.088051"/></g><g fill="#ffffff" stroke-miterlimit="10"><path d="M3500 15.09c-22.511 0-44.123 8.952-60.04 24.87-15.918 15.917-24.87 37.529-24.87 60.04 0 22.511 8.952 44.123 24.87 60.04 15.917 15.918 37.529 24.87 60.04 24.87 22.511 0 44.123-8.952 60.04-24.87 15.918-15.917 24.87-37.529 24.87-60.04 0-22.511-8.952-44.123-24.87-60.04-15.917-15.918-37.529-24.87-60.04-24.87z" stroke="#000000" stroke-width="20" stroke-dasharray="0,533.4973315674285" stroke-dashoffset="533.497332"/><path d="M3450.7 104.76l28.56 28.57 70.04-66.66" stroke="#1c2a43" stroke-width="5" stroke-dasharray="38.84161443409117,98.24643650976002" stroke-dashoffset="137.088051"/></g><g fill="#ffffff" stroke-miterlimit="10"><path d="M3700 15.09c-22.511 0-44.123 8.952-60.04 24.87-15.918 15.917-24.87 37.529-24.87 60.04 0 22.511 8.952 44.123 24.87 60.04 15.917 15.918 37.529 24.87 60.04 24.87 22.511 0 44.123-8.952 60.04-24.87 15.918-15.917 24.87-37.529 24.87-60.04 0-22.511-8.952-44.123-24.87-60.04-15.917-15.918-37.529-24.87-60.04-24.87z" stroke="#000000" stroke-width="20" stroke-dasharray="0,533.4973315674285" stroke-dashoffset="533.497332"/><path d="M3650.7 104.76l28.56 28.57 70.04-66.66" stroke="#1e2d47" stroke-width="5" stroke-dasharray="41.12641528315535,95.96163566069582" stroke-dashoffset="137.088051"/></g><g fill="#ffffff" stroke-miterlimit="10"><path d="M3900 15.09c-22.511 0-44.123 8.952-60.04 24.87-15.918 15.917-24.87 37.529-24.87 60.04 0 22.511 8.952 44.123 24.87 60.04 15.917 15.918 37.529 24.87 60.04 24.87 22.511 0 44.123-8.952 60.04-24.87 15.918-15.917 24.87-37.529 24.87-60.04 0-22.511-8.952-44.123-24.87-60.04-15.917-15.918-37.529-24.87-60.04-24.87z" stroke="#000000" stroke-width="20" stroke-dasharray="0,533.4973315674285" stroke-dashoffset="533.497332"/><path d="M3850.7 104.76l28.56 28.57 70.04-66.66" stroke="#202f4b" stroke-width="5" stroke-dasharray="43.41121613221955,93.67683481163165" stroke-dashoffset="137.088051"/></g><g fill="#ffffff" stroke-miterlimit="10"><path d="M4100 15.09c-22.511 0-44.123 8.952-60.04 24.87-15.918 15.917-24.87 37.529-24.87 60.04 0 22.511 8.952 44.123 24.87 60.04 15.917 15.918 37.529 24.87 60.04 24.87 22.511 0 44.123-8.952 60.04-24.87 15.918-15.917 24.87-37.529 24.87-60.04 0-22.511-8.952-44.123-24.87-60.04-15.917-15.918-37.529-24.87-60.04-24.87z" stroke="#000000" stroke-width="20" stroke-dasharray="0,533.4973315674285" stroke-dashoffset="533.497332"/><path d="M4050.7 104.76l28.56 28.57 70.04-66.66" stroke="#21324f" stroke-width="5" stroke-dasharray="45.69601698128373,91.39203396256747" stroke-dashoffset="137.088051"/></g><g fill="#ffffff" stroke-miterlimit="10"><path d="M4300 15.09c-22.511 0-44.123 8.952-60.04 24.87-15.918 15.917-24.87 37.529-24.87 60.04 0 22.511 8.952 44.123 24.87 60.04 15.917 15.918 37.529 24.87 60.04 24.87 22.511 0 44.123-8.952 60.04-24.87 15.918-15.917 24.87-37.529 24.87-60.04 0-22.511-8.952-44.123-24.87-60.04-15.917-15.918-37.529-24.87-60.04-24.87z" stroke="#000000" stroke-width="20" stroke-dasharray="0,533.4973315674285" stroke-dashoffset="533.497332"/><path d="M4250.7 104.76l28.56 28.57 70.04-66.66" stroke="#233453" stroke-width="5" stroke-dasharray="47.98081783034791,89.10723311350327" stroke-dashoffset="137.088051"/></g><g fill="#ffffff" stroke-miterlimit="10"><path d="M4500 15.09c-22.511 0-44.123 8.952-60.04 24.87-15.918 15.917-24.87 37.529-24.87 60.04 0 22.511 8.952 44.123 24.87 60.04 15.917 15.918 37.529 24.87 60.04 24.87 22.511 0 44.123-8.952 60.04-24.87 15.918-15.917 24.87-37.529 24.87-60.04 0-22.511-8.952-44.123-24.87-60.04-15.917-15.918-37.529-24.87-60.04-24.87z" stroke="#000000" stroke-width="20" stroke-dasharray="0,533.4973315674285" stroke-dashoffset="533.497332"/><path d="M4450.7 104.76l28.56 28.57 70.04-66.66" stroke="#253757" stroke-width="5" stroke-dasharray="50.2656186794121,86.82243226443909" stroke-dashoffset="137.088051"/></g><g fill="#ffffff" stroke-miterlimit="10"><path d="M4700 15.09c-22.511 0-44.123 8.952-60.04 24.87-15.918 15.917-24.87 37.529-24.87 60.04 0 22.511 8.952 44.123 24.87 60.04 15.917 15.918 37.529 24.87 60.04 24.87 22.511 0 44.123-8.952 60.04-24.87 15.918-15.917 24.87-37.529 24.87-60.04 0-22.511-8.952-44.123-24.87-60.04-15.917-15.918-37.529-24.87-60.04-24.87z" stroke="#000000" stroke-width="20" stroke-dasharray="0,533.4973315674285" stroke-dashoffset="533.497332"/><path d="M4650.7 104.76l28.56 28.57 70.04-66.66" stroke="#26395b" stroke-width="5" stroke-dasharray="52.55041952847628,84.5376314153749" stroke-dashoffset="137.088051"/></g><g fill="#ffffff" stroke-miterlimit="10"><path d="M4900 15.09c-22.511 0-44.123 8.952-60.04 24.87-15.918 15.917-24.87 37.529-24.87 60.04 0 22.511 8.952 44.123 24.87 60.04 15.917 15.918 37.529 24.87 60.04 24.87 22.511 0 44.123-8.952 60.04-24.87 15.918-15.917 24.87-37.529 24.87-60.04 0-22.511-8.952-44.123-24.87-60.04-15.917-15.918-37.529-24.87-60.04-24.87z" stroke="#000000" stroke-width="20" stroke-dasharray="0,533.4973315674285" stroke-dashoffset="533.497332"/><path d="M4850.7 104.76l28.56 28.57 70.04-66.66" stroke="#283c5f" stroke-width="5" stroke-dasharray="54.83522037754048,82.2528305663107" stroke-dashoffset="137.088051"/></g><g fill="#ffffff" stroke-miterlimit="10"><path d="M5100 15.09c-22.511 0-44.123 8.952-60.04 24.87-15.918 15.917-24.87 37.529-24.87 60.04 0 22.511 8.952 44.123 24.87 60.04 15.917 15.918 37.529 24.87 60.04 24.87 22.511 0 44.123-8.952 60.04-24.87 15.918-15.917 24.87-37.529 24.87-60.04 0-22.511-8.952-44.123-24.87-60.04-15.917-15.918-37.529-24.87-60.04-24.87z" stroke="#030508" stroke-width="20" stroke-dasharray="0,533.4973315674285" stroke-dashoffset="533.497332"/><path d="M5050.7 104.76l28.56 28.57 70.04-66.66" stroke="#2a3e63" stroke-width="5" stroke-dasharray="57.12002122660466,79.96802971724651" stroke-dashoffset="137.088051"/></g><g fill="#ffffff" stroke-miterlimit="10"><path d="M5300 15.09c-22.511 0-44.123 8.952-60.04 24.87-15.918 15.917-24.87 37.529-24.87 60.04 0 22.511 8.952 44.123 24.87 60.04 15.917 15.918 37.529 24.87 60.04 24.87 22.511 0 44.123-8.952 60.04-24.87 15.918-15.917 24.87-37.529 24.87-60.04 0-22.511-8.952-44.123-24.87-60.04-15.917-15.918-37.529-24.87-60.04-24.87z" stroke="#070a10" stroke-width="20" stroke-dasharray="0,533.4973315674285" stroke-dashoffset="533.497332"/><path d="M5250.7 104.76l28.56 28.57 70.04-66.66" stroke="#2b4167" stroke-width="5" stroke-dasharray="59.40482207566884,77.68322886818234" stroke-dashoffset="137.088051"/></g><g fill="#ffffff" stroke-miterlimit="10"><path d="M5500 15.09c-22.511 0-44.123 8.952-60.04 24.87-15.918 15.917-24.87 37.529-24.87 60.04 0 22.511 8.952 44.123 24.87 60.04 15.917 15.918 37.529 24.87 60.04 24.87 22.511 0 44.123-8.952 60.04-24.87 15.918-15.917 24.87-37.529 24.87-60.04 0-22.511-8.952-44.123-24.87-60.04-15.917-15.918-37.529-24.87-60.04-24.87z" stroke="#0a0f18" stroke-width="20" stroke-dasharray="0,533.4973315674285" stroke-dashoffset="533.497332"/><path d="M5450.7 104.76l28.56 28.57 70.04-66.66" stroke="#2d436b" stroke-width="5" stroke-dasharray="61.68962292473304,75.39842801911816" stroke-dashoffset="137.088051"/></g><g fill="#ffffff" stroke-miterlimit="10"><path d="M5700 15.09c-22.511 0-44.123 8.952-60.04 24.87-15.918 15.917-24.87 37.529-24.87 60.04 0 22.511 8.952 44.123 24.87 60.04 15.917 15.918 37.529 24.87 60.04 24.87 22.511 0 44.123-8.952 60.04-24.87 15.918-15.917 24.87-37.529 24.87-60.04 0-22.511-8.952-44.123-24.87-60.04-15.917-15.918-37.529-24.87-60.04-24.87z" stroke="#0d1420" stroke-width="20" stroke-dasharray="0,533.4973315674285" stroke-dashoffset="533.497332"/><path d="M5650.7 104.76l28.56 28.57 70.04-66.66" stroke="#2f466f" stroke-width="5" stroke-dasharray="63.97442377379722,73.11362717005396" stroke-dashoffset="137.088051"/></g><g fill="#ffffff" stroke-miterlimit="10"><path d="M5900 15.09c-22.511 0-44.123 8.952-60.04 24.87-15.918 15.917-24.87 37.529-24.87 60.04 0 22.511 8.952 44.123 24.87 60.04 15.917 15.918 37.529 24.87 60.04 24.87 22.511 0 44.123-8.952 60.04-24.87 15.918-15.917 24.87-37.529 24.87-60.04 0-22.511-8.952-44.123-24.87-60.04-15.917-15.918-37.529-24.87-60.04-24.87z" stroke="#111928" stroke-width="20" stroke-dasharray="0,533.4973315674285" stroke-dashoffset="533.497332"/><path d="M5850.7 104.76l28.56 28.57 70.04-66.66" stroke="#304873" stroke-width="5" stroke-dasharray="66.25922462286141,70.82882632098978" stroke-dashoffset="137.088051"/></g><g fill="#ffffff" stroke-miterlimit="10"><path d="M6100 15.09c-22.511 0-44.123 8.952-60.04 24.87-15.918 15.917-24.87 37.529-24.87 60.04 0 22.511 8.952 44.123 24.87 60.04 15.917 15.918 37.529 24.87 60.04 24.87 22.511 0 44.123-8.952 60.04-24.87 15.918-15.917 24.87-37.529 24.87-60.04 0-22.511-8.952-44.123-24.87-60.04-15.917-15.918-37.529-24.87-60.04-24.87z" stroke="#141e2f" stroke-width="20" stroke-dasharray="0,533.4973315674285" stroke-dashoffset="533.497332"/><path d="M6050.7 104.76l28.56 28.57 70.04-66.66" stroke="#324b77" stroke-width="5" stroke-dasharray="68.5440254719256,68.5440254719256" stroke-dashoffset="137.088051"/></g><g fill="#ffffff" stroke-miterlimit="10"><path d="M6300 15.09c-22.511 0-44.123 8.952-60.04 24.87-15.918 15.917-24.87 37.529-24.87 60.04 0 22.511 8.952 44.123 24.87 60.04 15.917 15.918 37.529 24.87 60.04 24.87 22.511 0 44.123-8.952 60.04-24.87 15.918-15.917 24.87-37.529 24.87-60.04 0-22.511-8.952-44.123-24.87-60.04-15.917-15.918-37.529-24.87-60.04-24.87z" stroke="#172337" stroke-width="20" stroke-dasharray="0,533.4973315674285" stroke-dashoffset="533.497332"/><path d="M6250.7 104.76l28.56 28.57 70.04-66.66" stroke="#344d7a" stroke-width="5" stroke-dasharray="70.82882632098978,66.25922462286141" stroke-dashoffset="137.088051"/></g><g fill="#ffffff" stroke-miterlimit="10"><path d="M6500 15.09c-22.511 0-44.123 8.952-60.04 24.87-15.918 15.917-24.87 37.529-24.87 60.04 0 22.511 8.952 44.123 24.87 60.04 15.917 15.918 37.529 24.87 60.04 24.87 22.511 0 44.123-8.952 60.04-24.87 15.918-15.917 24.87-37.529 24.87-60.04 0-22.511-8.952-44.123-24.87-60.04-15.917-15.918-37.529-24.87-60.04-24.87z" stroke="#1b283f" stroke-width="20" stroke-dasharray="0,533.4973315674285" stroke-dashoffset="533.497332"/><path d="M6450.7 104.76l28.56 28.57 70.04-66.66" stroke="#354f7e" stroke-width="5" stroke-dasharray="73.11362717005396,63.97442377379722" stroke-dashoffset="137.088051"/></g><g fill="#ffffff" stroke-miterlimit="10"><path d="M6700 15.09c-22.511 0-44.123 8.952-60.04 24.87-15.918 15.917-24.87 37.529-24.87 60.04 0 22.511 8.952 44.123 24.87 60.04 15.917 15.918 37.529 24.87 60.04 24.87 22.511 0 44.123-8.952 60.04-24.87 15.918-15.917 24.87-37.529 24.87-60.04 0-22.511-8.952-44.123-24.87-60.04-15.917-15.918-37.529-24.87-60.04-24.87z" stroke="#1e2d47" stroke-width="20" stroke-dasharray="0,533.4973315674285" stroke-dashoffset="533.497332"/><path d="M6650.7 104.76l28.56 28.57 70.04-66.66" stroke="#375282" stroke-width="5" stroke-dasharray="75.39842801911816,61.68962292473303" stroke-dashoffset="137.088051"/></g><g fill="#ffffff" stroke-miterlimit="10"><path d="M6900 15.09c-22.511 0-44.123 8.952-60.04 24.87-15.918 15.917-24.87 37.529-24.87 60.04 0 22.511 8.952 44.123 24.87 60.04 15.917 15.918 37.529 24.87 60.04 24.87 22.511 0 44.123-8.952 60.04-24.87 15.918-15.917 24.87-37.529 24.87-60.04 0-22.511-8.952-44.123-24.87-60.04-15.917-15.918-37.529-24.87-60.04-24.87z" stroke="#21324f" stroke-width="20" stroke-dasharray="0,533.4973315674285" stroke-dashoffset="533.497332"/><path d="M6850.7 104.76l28.56 28.57 70.04-66.66" stroke="#395486" stroke-width="5" stroke-dasharray="77.68322886818234,59.40482207566885" stroke-dashoffset="137.088051"/></g><g fill="#ffffff" stroke-miterlimit="10"><path d="M7100 15.09c-22.511 0-44.123 8.952-60.04 24.87-15.918 15.917-24.87 37.529-24.87 60.04 0 22.511 8.952 44.123 24.87 60.04 15.917 15.918 37.529 24.87 60.04 24.87 22.511 0 44.123-8.952 60.04-24.87 15.918-15.917 24.87-37.529 24.87-60.04 0-22.511-8.952-44.123-24.87-60.04-15.917-15.918-37.529-24.87-60.04-24.87z" stroke="#253757" stroke-width="20" stroke-dasharray="0,533.4973315674285" stroke-dashoffset="533.497332"/><path d="M7050.7 104.76l28.56 28.57 70.04-66.66" stroke="#3a578a" stroke-width="5" stroke-dasharray="79.96802971724654,57.120021226604656" stroke-dashoffset="137.088051"/></g><g fill="#ffffff" stroke-miterlimit="10"><path d="M7300 15.09c-22.511 0-44.123 8.952-60.04 24.87-15.918 15.917-24.87 37.529-24.87 60.04 0 22.511 8.952 44.123 24.87 60.04 15.917 15.918 37.529 24.87 60.04 24.87 22.511 0 44.123-8.952 60.04-24.87 15.918-15.917 24.87-37.529 24.87-60.04 0-22.511-8.952-44.123-24.87-60.04-15.917-15.918-37.529-24.87-60.04-24.87z" stroke="#283c5f" stroke-width="20" stroke-dasharray="0,533.4973315674285" stroke-dashoffset="533.497332"/><path d="M7250.7 104.76l28.56 28.57 70.04-66.66" stroke="#3c598e" stroke-width="5" stroke-dasharray="82.2528305663107,54.83522037754048" stroke-dashoffset="137.088051"/></g><g fill="#ffffff" stroke-miterlimit="10"><path d="M7500 15.09c-22.511 0-44.123 8.952-60.04 24.87-15.918 15.917-24.87 37.529-24.87 60.04 0 22.511 8.952 44.123 24.87 60.04 15.917 15.918 37.529 24.87 60.04 24.87 22.511 0 44.123-8.952 60.04-24.87 15.918-15.917 24.87-37.529 24.87-60.04 0-22.511-8.952-44.123-24.87-60.04-15.917-15.918-37.529-24.87-60.04-24.87z" stroke="#2b4167" stroke-width="20" stroke-dasharray="0,533.4973315674285" stroke-dashoffset="533.497332"/><path d="M7450.7 104.76l28.56 28.57 70.04-66.66" stroke="#3e5c92" stroke-width="5" stroke-dasharray="84.53763141537489,52.5504195284763" stroke-dashoffset="137.088051"/></g><g fill="#ffffff" stroke-miterlimit="10"><path d="M7700 15.09c-22.511 0-44.123 8.952-60.04 24.87-15.918 15.917-24.87 37.529-24.87 60.04 0 22.511 8.952 44.123 24.87 60.04 15.917 15.918 37.529 24.87 60.04 24.87 22.511 0 44.123-8.952 60.04-24.87 15.918-15.917 24.87-37.529 24.87-60.04 0-22.511-8.952-44.123-24.87-60.04-15.917-15.918-37.529-24.87-60.04-24.87z" stroke="#2f466f" stroke-width="20" stroke-dasharray="0,533.4973315674285" stroke-dashoffset="533.497332"/><path d="M7650.7 104.76l28.56 28.57 70.04-66.66" stroke="#3f5e96" stroke-width="5" stroke-dasharray="86.8224322644391,50.26561867941209" stroke-dashoffset="137.088051"/></g><g fill="#ffffff" stroke-miterlimit="10"><path d="M7900 15.09c-22.511 0-44.123 8.952-60.04 24.87-15.918 15.917-24.87 37.529-24.87 60.04 0 22.511 8.952 44.123 24.87 60.04 15.917 15.918 37.529 24.87 60.04 24.87 22.511 0 44.123-8.952 60.04-24.87 15.918-15.917 24.87-37.529 24.87-60.04 0-22.511-8.952-44.123-24.87-60.04-15.917-15.918-37.529-24.87-60.04-24.87z" stroke="#324b77" stroke-width="20" stroke-dasharray="0,533.4973315674285" stroke-dashoffset="533.497332"/><path d="M7850.7 104.76l28.56 28.57 70.04-66.66" stroke="#41619a" stroke-width="5" stroke-dasharray="89.10723311350327,47.98081783034791" stroke-dashoffset="137.088051"/></g><g fill="#ffffff" stroke-miterlimit="10"><path d="M8100 15.09c-22.511 0-44.123 8.952-60.04 24.87-15.918 15.917-24.87 37.529-24.87 60.04 0 22.511 8.952 44.123 24.87 60.04 15.917 15.918 37.529 24.87 60.04 24.87 22.511 0 44.123-8.952 60.04-24.87 15.918-15.917 24.87-37.529 24.87-60.04 0-22.511-8.952-44.123-24.87-60.04-15.917-15.918-37.529-24.87-60.04-24.87z" stroke="#354f7e" stroke-width="20" stroke-dasharray="0,533.4973315674285" stroke-dashoffset="533.497332"/><path d="M8050.7 104.76l28.56 28.57 70.04-66.66" stroke="#43639e" stroke-width="5" stroke-dasharray="91.39203396256745,45.696016981283734" stroke-dashoffset="137.088051"/></g><g fill="#ffffff" stroke-miterlimit="10"><path d="M8300 15.09c-22.511 0-44.123 8.952-60.04 24.87-15.918 15.917-24.87 37.529-24.87 60.04 0 22.511 8.952 44.123 24.87 60.04 15.917 15.918 37.529 24.87 60.04 24.87 22.511 0 44.123-8.952 60.04-24.87 15.918-15.917 24.87-37.529 24.87-60.04 0-22.511-8.952-44.123-24.87-60.04-15.917-15.918-37.529-24.87-60.04-24.87z" stroke="#395486" stroke-width="20" stroke-dasharray="0,533.4973315674285" stroke-dashoffset="533.497332"/><path d="M8250.7 104.76l28.56 28.57 70.04-66.66" stroke="#4466a2" stroke-width="5" stroke-dasharray="93.67683481163165,43.41121613221954" stroke-dashoffset="137.088051"/></g><g fill="#ffffff" stroke-miterlimit="10"><path d="M8500 15.09c-22.511 0-44.123 8.952-60.04 24.87-15.918 15.917-24.87 37.529-24.87 60.04 0 22.511 8.952 44.123 24.87 60.04 15.917 15.918 37.529 24.87 60.04 24.87 22.511 0 44.123-8.952 60.04-24.87 15.918-15.917 24.87-37.529 24.87-60.04 0-22.511-8.952-44.123-24.87-60.04-15.917-15.918-37.529-24.87-60.04-24.87z" stroke="#3c598e" stroke-width="20" stroke-dasharray="0,533.4973315674285" stroke-dashoffset="533.497332"/><path d="M8450.7 104.76l28.56 28.57 70.04-66.66" stroke="#4668a6" stroke-width="5" stroke-dasharray="95.96163566069582,41.12641528315536" stroke-dashoffset="137.088051"/></g><g fill="#ffffff" stroke-miterlimit="10"><path d="M8700 15.09c-22.511 0-44.123 8.952-60.04 24.87-15.918 15.917-24.87 37.529-24.87 60.04 0 22.511 8.952 44.123 24.87 60.04 15.917 15.918 37.529 24.87 60.04 24.87 22.511 0 44.123-8.952 60.04-24.87 15.918-15.917 24.87-37.529 24.87-60.04 0-22.511-8.952-44.123-24.87-60.04-15.917-15.918-37.529-24.87-60.04-24.87z" stroke="#3f5e96" stroke-width="20" stroke-dasharray="0,533.4973315674285" stroke-dashoffset="533.497332"/><path d="M8650.7 104.76l28.56 28.57 70.04-66.66" stroke="#486baa" stroke-width="5" stroke-dasharray="98.24643650976003,38.841614434091156" stroke-dashoffset="137.088051"/></g><g fill="#ffffff" stroke-miterlimit="10"><path d="M8900 15.09c-22.511 0-44.123 8.952-60.04 24.87-15.918 15.917-24.87 37.529-24.87 60.04 0 22.511 8.952 44.123 24.87 60.04 15.917 15.918 37.529 24.87 60.04 24.87 22.511 0 44.123-8.952 60.04-24.87 15.918-15.917 24.87-37.529 24.87-60.04 0-22.511-8.952-44.123-24.87-60.04-15.917-15.918-37.529-24.87-60.04-24.87z" stroke="#43639e" stroke-width="20" stroke-dasharray="0,533.4973315674285" stroke-dashoffset="533.497332"/><path d="M8850.7 104.76l28.56 28.57 70.04-66.66" stroke="#496dae" stroke-width="5" stroke-dasharray="100.5312373588242,36.55681358502699" stroke-dashoffset="137.088051"/></g><g fill="#ffffff" stroke-miterlimit="10"><path d="M9100 15.09c-22.511 0-44.123 8.952-60.04 24.87-15.918 15.917-24.87 37.529-24.87 60.04 0 22.511 8.952 44.123 24.87 60.04 15.917 15.918 37.529 24.87 60.04 24.87 22.511 0 44.123-8.952 60.04-24.87 15.918-15.917 24.87-37.529 24.87-60.04 0-22.511-8.952-44.123-24.87-60.04-15.917-15.918-37.529-24.87-60.04-24.87z" stroke="#4668a6" stroke-width="20" stroke-dasharray="0,533.4973315674285" stroke-dashoffset="533.497332"/><path d="M9050.7 104.76l28.56 28.57 70.04-66.66" stroke="#4b70b2" stroke-width="5" stroke-dasharray="102.8160382078884,34.2720127359628" stroke-dashoffset="137.088051"/></g><g fill="#ffffff" stroke-miterlimit="10"><path d="M9300 15.09c-22.511 0-44.123 8.952-60.04 24.87-15.918 15.917-24.87 37.529-24.87 60.04 0 22.511 8.952 44.123 24.87 60.04 15.917 15.918 37.529 24.87 60.04 24.87 22.511 0 44.123-8.952 60.04-24.87 15.918-15.917 24.87-37.529 24.87-60.04 0-22.511-8.952-44.123-24.87-60.04-15.917-15.918-37.529-24.87-60.04-24.87z" stroke="#496dae" stroke-width="20" stroke-dasharray="0,533.4973315674285" stroke-dashoffset="533.497332"/><path d="M9250.7 104.76l28.56 28.57 70.04-66.66" stroke="#4d72b6" stroke-width="5" stroke-dasharray="105.10083905695257,31.987211886898617" stroke-dashoffset="137.088051"/></g><g fill="#ffffff" stroke-miterlimit="10"><path d="M9500 15.09c-22.511 0-44.123 8.952-60.04 24.87-15.918 15.917-24.87 37.529-24.87 60.04 0 22.511 8.952 44.123 24.87 60.04 15.917 15.918 37.529 24.87 60.04 24.87 22.511 0 44.123-8.952 60.04-24.87 15.918-15.917 24.87-37.529 24.87-60.04 0-22.511-8.952-44.123-24.87-60.04-15.917-15.918-37.529-24.87-60.04-24.87z" stroke="#4d72b6" stroke-width="20" stroke-dasharray="0,533.4973315674285" stroke-dashoffset="533.497332"/><path d="M9450.7 104.76l28.56 28.57 70.04-66.66" stroke="#4e75ba" stroke-width="5" stroke-dasharray="107.38563990601676,29.702411037834423" stroke-dashoffset="137.088051"/></g><g fill="#ffffff" stroke="#5077be" stroke-miterlimit="10"><path d="M9700 15.09c-22.511 0-44.123 8.952-60.04 24.87-15.918 15.917-24.87 37.529-24.87 60.04 0 22.511 8.952 44.123 24.87 60.04 15.917 15.918 37.529 24.87 60.04 24.87 22.511 0 44.123-8.952 60.04-24.87 15.918-15.917 24.87-37.529 24.87-60.04 0-22.511-8.952-44.123-24.87-60.04-15.917-15.918-37.529-24.87-60.04-24.87z" stroke-width="20" stroke-dasharray="0,533.4973315674285" stroke-dashoffset="533.497332"/><path d="M9650.7 104.76l28.56 28.57 70.04-66.66" stroke-width="5" stroke-dasharray="109.67044075508096,27.41761018877023" stroke-dashoffset="137.088051"/></g><g fill="#ffffff" stroke-miterlimit="10"><path d="M9900 15.09c-22.511 0-44.123 8.952-60.04 24.87-15.918 15.917-24.87 37.529-24.87 60.04 0 22.511 8.952 44.123 24.87 60.04 15.917 15.918 37.529 24.87 60.04 24.87 22.511 0 44.123-8.952 60.04-24.87 15.918-15.917 24.87-37.529 24.87-60.04 0-22.511-8.952-44.123-24.87-60.04-15.917-15.918-37.529-24.87-60.04-24.87z" stroke="#537cc5" stroke-width="20" stroke-dasharray="0,533.4973315674285" stroke-dashoffset="533.497332"/><path d="M9850.7 104.76l28.56 28.57 70.04-66.66" stroke="#527ac2" stroke-width="5" stroke-dasharray="111.95524160414513,25.132809339706053" stroke-dashoffset="137.088051"/></g><g fill="#ffffff" stroke-miterlimit="10"><path d="M10100 15.09c-22.511 0-44.123 8.952-60.04 24.87-15.918 15.917-24.87 37.529-24.87 60.04 0 22.511 8.952 44.123 24.87 60.04 15.917 15.918 37.529 24.87 60.04 24.87 22.511 0 44.123-8.952 60.04-24.87 15.918-15.917 24.87-37.529 24.87-60.04 0-22.511-8.952-44.123-24.87-60.04-15.917-15.918-37.529-24.87-60.04-24.87z" stroke="#5781cd" stroke-width="20" stroke-dasharray="0,533.4973315674285" stroke-dashoffset="533.497332"/><path d="M10050.7 104.76l28.56 28.57 70.04-66.66" stroke="#537cc6" stroke-width="5" stroke-dasharray="114.24004245320933,22.84800849064186" stroke-dashoffset="137.088051"/></g><g fill="#ffffff" stroke-miterlimit="10"><path d="M10300 15.09c-22.511 0-44.123 8.952-60.04 24.87-15.918 15.917-24.87 37.529-24.87 60.04 0 22.511 8.952 44.123 24.87 60.04 15.917 15.918 37.529 24.87 60.04 24.87 22.511 0 44.123-8.952 60.04-24.87 15.918-15.917 24.87-37.529 24.87-60.04 0-22.511-8.952-44.123-24.87-60.04-15.917-15.918-37.529-24.87-60.04-24.87z" stroke="#5a86d5" stroke-width="20" stroke-dasharray="0,533.4973315674285" stroke-dashoffset="533.497332"/><path d="M10250.7 104.76l28.56 28.57 70.04-66.66" stroke="#557fc9" stroke-width="5" stroke-dasharray="116.52484330227351,20.56320764157768" stroke-dashoffset="137.088051"/></g><g fill="#ffffff" stroke-miterlimit="10"><path d="M10500 15.09c-22.511 0-44.123 8.952-60.04 24.87-15.918 15.917-24.87 37.529-24.87 60.04 0 22.511 8.952 44.123 24.87 60.04 15.917 15.918 37.529 24.87 60.04 24.87 22.511 0 44.123-8.952 60.04-24.87 15.918-15.917 24.87-37.529 24.87-60.04 0-22.511-8.952-44.123-24.87-60.04-15.917-15.918-37.529-24.87-60.04-24.87z" stroke="#5d8bdd" stroke-width="20" stroke-dasharray="0,533.4973315674285" stroke-dashoffset="533.497332"/><path d="M10450.7 104.76l28.56 28.57 70.04-66.66" stroke="#5781cd" stroke-width="5" stroke-dasharray="118.80964415133768,18.278406792513504" stroke-dashoffset="137.088051"/></g><g fill="#ffffff" stroke-miterlimit="10"><path d="M10700 15.09c-22.511 0-44.123 8.952-60.04 24.87-15.918 15.917-24.87 37.529-24.87 60.04 0 22.511 8.952 44.123 24.87 60.04 15.917 15.918 37.529 24.87 60.04 24.87 22.511 0 44.123-8.952 60.04-24.87 15.918-15.917 24.87-37.529 24.87-60.04 0-22.511-8.952-44.123-24.87-60.04-15.917-15.918-37.529-24.87-60.04-24.87z" stroke="#6190e5" stroke-width="20" stroke-dasharray="0,533.4973315674285" stroke-dashoffset="533.497332"/><path d="M10650.7 104.76l28.56 28.57 70.04-66.66" stroke="#5884d1" stroke-width="5" stroke-dasharray="121.09444500040189,15.993605943449294" stroke-dashoffset="137.088051"/></g><g fill="#ffffff" stroke-miterlimit="10"><path d="M10900 15.09c-22.511 0-44.123 8.952-60.04 24.87-15.918 15.917-24.87 37.529-24.87 60.04 0 22.511 8.952 44.123 24.87 60.04 15.917 15.918 37.529 24.87 60.04 24.87 22.511 0 44.123-8.952 60.04-24.87 15.918-15.917 24.87-37.529 24.87-60.04 0-22.511-8.952-44.123-24.87-60.04-15.917-15.918-37.529-24.87-60.04-24.87z" stroke="#000000" stroke-width="20" stroke-dasharray="0,533.4973315674285" stroke-dashoffset="533.497332"/><path d="M10850.7 104.76l28.56 28.57 70.04-66.66" stroke="#5a86d5" stroke-width="5" stroke-dasharray="123.37924584946607,13.708805094385115" stroke-dashoffset="137.088051"/></g><g fill="#ffffff" stroke-miterlimit="10"><path d="M11100 15.09c-22.511 0-44.123 8.952-60.04 24.87-15.918 15.917-24.87 37.529-24.87 60.04 0 22.511 8.952 44.123 24.87 60.04 15.917 15.918 37.529 24.87 60.04 24.87 22.511 0 44.123-8.952 60.04-24.87 15.918-15.917 24.87-37.529 24.87-60.04 0-22.511-8.952-44.123-24.87-60.04-15.917-15.918-37.529-24.87-60.04-24.87z" stroke="#000000" stroke-width="20" stroke-dasharray="0,533.4973315674285" stroke-dashoffset="533.497332"/><path d="M11050.7 104.76l28.56 28.57 70.04-66.66" stroke="#5c89d9" stroke-width="5" stroke-dasharray="125.66404669853027,11.424004245320923" stroke-dashoffset="137.088051"/></g><g fill="#ffffff" stroke-miterlimit="10"><path d="M11300 15.09c-22.511 0-44.123 8.952-60.04 24.87-15.918 15.917-24.87 37.529-24.87 60.04 0 22.511 8.952 44.123 24.87 60.04 15.917 15.918 37.529 24.87 60.04 24.87 22.511 0 44.123-8.952 60.04-24.87 15.918-15.917 24.87-37.529 24.87-60.04 0-22.511-8.952-44.123-24.87-60.04-15.917-15.918-37.529-24.87-60.04-24.87z" stroke="#000000" stroke-width="20" stroke-dasharray="0,533.4973315674285" stroke-dashoffset="533.497332"/><path d="M11250.7 104.76l28.56 28.57 70.04-66.66" stroke="#5d8bdd" stroke-width="5" stroke-dasharray="127.94884754759444,9.139203396256743" stroke-dashoffset="137.088051"/></g><g fill="#ffffff" stroke-miterlimit="10"><path d="M11500 15.09c-22.511 0-44.123 8.952-60.04 24.87-15.918 15.917-24.87 37.529-24.87 60.04 0 22.511 8.952 44.123 24.87 60.04 15.917 15.918 37.529 24.87 60.04 24.87 22.511 0 44.123-8.952 60.04-24.87 15.918-15.917 24.87-37.529 24.87-60.04 0-22.511-8.952-44.123-24.87-60.04-15.917-15.918-37.529-24.87-60.04-24.87z" stroke="#000000" stroke-width="20" stroke-dasharray="0,533.4973315674285" stroke-dashoffset="533.497332"/><path d="M11450.7 104.76l28.56 28.57 70.04-66.66" stroke="#5f8ee1" stroke-width="5" stroke-dasharray="130.23364839665862,6.854402547192565" stroke-dashoffset="137.088051"/></g><g fill="#ffffff" stroke-miterlimit="10"><path d="M11700 15.09c-22.511 0-44.123 8.952-60.04 24.87-15.918 15.917-24.87 37.529-24.87 60.04 0 22.511 8.952 44.123 24.87 60.04 15.917 15.918 37.529 24.87 60.04 24.87 22.511 0 44.123-8.952 60.04-24.87 15.918-15.917 24.87-37.529 24.87-60.04 0-22.511-8.952-44.123-24.87-60.04-15.917-15.918-37.529-24.87-60.04-24.87z" stroke="#000000" stroke-width="20" stroke-dasharray="0,533.4973315674285" stroke-dashoffset="533.497332"/><path d="M11650.7 104.76l28.56 28.57 70.04-66.66" stroke="#6190e5" stroke-width="5" stroke-dasharray="132.51844924572282,4.5696016981283565" stroke-dashoffset="137.088051"/></g><g fill="#ffffff" stroke-miterlimit="10"><path d="M11900 15.09c-22.511 0-44.123 8.952-60.04 24.87-15.918 15.917-24.87 37.529-24.87 60.04 0 22.511 8.952 44.123 24.87 60.04 15.917 15.918 37.529 24.87 60.04 24.87 22.511 0 44.123-8.952 60.04-24.87 15.918-15.917 24.87-37.529 24.87-60.04 0-22.511-8.952-44.123-24.87-60.04-15.917-15.918-37.529-24.87-60.04-24.87z" stroke="#000000" stroke-width="20" stroke-dasharray="0,533.4973315674285" stroke-dashoffset="533.497332"/><path d="M11850.7 104.76l28.56 28.57 70.04-66.66" stroke="#6293e9" stroke-width="5" stroke-dasharray="134.80325009478702,2.2848008490641782" stroke-dashoffset="137.088051"/></g><g fill="#ffffff" stroke-miterlimit="10"><path d="M12100 15.09c-22.511 0-44.123 8.952-60.04 24.87-15.918 15.917-24.87 37.529-24.87 60.04 0 22.511 8.952 44.123 24.87 60.04 15.917 15.918 37.529 24.87 60.04 24.87 22.511 0 44.123-8.952 60.04-24.87 15.918-15.917 24.87-37.529 24.87-60.04 0-22.511-8.952-44.123-24.87-60.04-15.917-15.918-37.529-24.87-60.04-24.87z" stroke="#000000" stroke-width="20" stroke-dasharray="0,533.4973315674285" stroke-dashoffset="533.497332"/><path d="M12050.7 104.76l28.56 28.57 70.04-66.66" stroke="#6495ed" stroke-width="5"/></g><g fill="#ffffff" stroke-miterlimit="10"><path d="M12300 15.09c-22.511 0-44.123 8.952-60.04 24.87-15.918 15.917-24.87 37.529-24.87 60.04 0 22.511 8.952 44.123 24.87 60.04 15.917 15.918 37.529 24.87 60.04 24.87 22.511 0 44.123-8.952 60.04-24.87 15.918-15.917 24.87-37.529 24.87-60.04 0-22.511-8.952-44.123-24.87-60.04-15.917-15.918-37.529-24.87-60.04-24.87z" stroke="#000000" stroke-width="20" stroke-dasharray="17.783244385581032,515.7140871818475" stroke-dashoffset="533.497332"/><path d="M12250.7 104.76l28.56 28.57 70.04-66.66" stroke="#6495ed" stroke-width="5"/></g><g fill="#ffffff" stroke-miterlimit="10"><path d="M12500 15.09c-22.511 0-44.123 8.952-60.04 24.87-15.918 15.917-24.87 37.529-24.87 60.04 0 22.511 8.952 44.123 24.87 60.04 15.917 15.918 37.529 24.87 60.04 24.87 22.511 0 44.123-8.952 60.04-24.87 15.918-15.917 24.87-37.529 24.87-60.04 0-22.511-8.952-44.123-24.87-60.04-15.917-15.918-37.529-24.87-60.04-24.87z" stroke="#000000" stroke-width="20" stroke-dasharray="35.56648877116182,497.9308427962667" stroke-dashoffset="533.497332"/><path d="M12450.7 104.76l28.56 28.57 70.04-66.66" stroke="#6495ed" stroke-width="5"/></g><g fill="#ffffff" stroke-miterlimit="10"><path d="M12700 15.09c-22.511 0-44.123 8.952-60.04 24.87-15.918 15.917-24.87 37.529-24.87 60.04 0 22.511 8.952 44.123 24.87 60.04 15.917 15.918 37.529 24.87 60.04 24.87 22.511 0 44.123-8.952 60.04-24.87 15.918-15.917 24.87-37.529 24.87-60.04 0-22.511-8.952-44.123-24.87-60.04-15.917-15.918-37.529-24.87-60.04-24.87z" stroke="#000000" stroke-width="20" stroke-dasharray="53.34973315674286,480.1475984106857" stroke-dashoffset="533.497332"/><path d="M12650.7 104.76l28.56 28.57 70.04-66.66" stroke="#6495ed" stroke-width="5"/></g><g fill="#ffffff" stroke-miterlimit="10"><path d="M12900 15.09c-22.511 0-44.123 8.952-60.04 24.87-15.918 15.917-24.87 37.529-24.87 60.04 0 22.511 8.952 44.123 24.87 60.04 15.917 15.918 37.529 24.87 60.04 24.87 22.511 0 44.123-8.952 60.04-24.87 15.918-15.917 24.87-37.529 24.87-60.04 0-22.511-8.952-44.123-24.87-60.04-15.917-15.918-37.529-24.87-60.04-24.87z" stroke="#000000" stroke-width="20" stroke-dasharray="71.1329775423239,462.36435402510466" stroke-dashoffset="533.497332"/><path d="M12850.7 104.76l28.56 28.57 70.04-66.66" stroke="#6495ed" stroke-width="5"/></g><g fill="#ffffff" stroke-miterlimit="10"><path d="M13100 15.09c-22.511 0-44.123 8.952-60.04 24.87-15.918 15.917-24.87 37.529-24.87 60.04 0 22.511 8.952 44.123 24.87 60.04 15.917 15.918 37.529 24.87 60.04 24.87 22.511 0 44.123-8.952 60.04-24.87 15.918-15.917 24.87-37.529 24.87-60.04 0-22.511-8.952-44.123-24.87-60.04-15.917-15.918-37.529-24.87-60.04-24.87z" stroke="#000000" stroke-width="20" stroke-dasharray="88.91622192790467,444.58110963952385" stroke-dashoffset="533.497332"/><path d="M13050.7 104.76l28.56 28.57 70.04-66.66" stroke="#6495ed" stroke-width="5"/></g><g fill="#ffffff" stroke-miterlimit="10"><path d="M13300 15.09c-22.511 0-44.123 8.952-60.04 24.87-15.918 15.917-24.87 37.529-24.87 60.04 0 22.511 8.952 44.123 24.87 60.04 15.917 15.918 37.529 24.87 60.04 24.87 22.511 0 44.123-8.952 60.04-24.87 15.918-15.917 24.87-37.529 24.87-60.04 0-22.511-8.952-44.123-24.87-60.04-15.917-15.918-37.529-24.87-60.04-24.87z" stroke="#000000" stroke-width="20" stroke-dasharray="106.69946631348571,426.79786525394286" stroke-dashoffset="533.497332"/><path d="M13250.7 104.76l28.56 28.57 70.04-66.66" stroke="#6495ed" stroke-width="5"/></g><g fill="#ffffff" stroke-miterlimit="10"><path d="M13500 15.09c-22.511 0-44.123 8.952-60.04 24.87-15.918 15.917-24.87 37.529-24.87 60.04 0 22.511 8.952 44.123 24.87 60.04 15.917 15.918 37.529 24.87 60.04 24.87 22.511 0 44.123-8.952 60.04-24.87 15.918-15.917 24.87-37.529 24.87-60.04 0-22.511-8.952-44.123-24.87-60.04-15.917-15.918-37.529-24.87-60.04-24.87z" stroke="#000000" stroke-width="20" stroke-dasharray="124.48271069906674,409.0146208683618" stroke-dashoffset="533.497332"/><path d="M13450.7 104.76l28.56 28.57 70.04-66.66" stroke="#6495ed" stroke-width="5"/></g><g fill="#ffffff" stroke-miterlimit="10"><path d="M13700 15.09c-22.511 0-44.123 8.952-60.04 24.87-15.918 15.917-24.87 37.529-24.87 60.04 0 22.511 8.952 44.123 24.87 60.04 15.917 15.918 37.529 24.87 60.04 24.87 22.511 0 44.123-8.952 60.04-24.87 15.918-15.917 24.87-37.529 24.87-60.04 0-22.511-8.952-44.123-24.87-60.04-15.917-15.918-37.529-24.87-60.04-24.87z" stroke="#000000" stroke-width="20" stroke-dasharray="142.26595508464752,391.231376482781" stroke-dashoffset="533.497332"/><path d="M13650.7 104.76l28.56 28.57 70.04-66.66" stroke="#6495ed" stroke-width="5"/></g><g fill="#ffffff" stroke-miterlimit="10"><path d="M13900 15.09c-22.511 0-44.123 8.952-60.04 24.87-15.918 15.917-24.87 37.529-24.87 60.04 0 22.511 8.952 44.123 24.87 60.04 15.917 15.918 37.529 24.87 60.04 24.87 22.511 0 44.123-8.952 60.04-24.87 15.918-15.917 24.87-37.529 24.87-60.04 0-22.511-8.952-44.123-24.87-60.04-15.917-15.918-37.529-24.87-60.04-24.87z" stroke="#000000" stroke-width="20" stroke-dasharray="160.04919947022856,373.44813209719996" stroke-dashoffset="533.497332"/><path d="M13850.7 104.76l28.56 28.57 70.04-66.66" stroke="#6495ed" stroke-width="5"/></g><g fill="#ffffff" stroke-miterlimit="10"><path d="M14100 15.09c-22.511 0-44.123 8.952-60.04 24.87-15.918 15.917-24.87 37.529-24.87 60.04 0 22.511 8.952 44.123 24.87 60.04 15.917 15.918 37.529 24.87 60.04 24.87 22.511 0 44.123-8.952 60.04-24.87 15.918-15.917 24.87-37.529 24.87-60.04 0-22.511-8.952-44.123-24.87-60.04-15.917-15.918-37.529-24.87-60.04-24.87z" stroke="#000000" stroke-width="20" stroke-dasharray="177.8324438558096,355.664887711619" stroke-dashoffset="533.497332"/><path d="M14050.7 104.76l28.56 28.57 70.04-66.66" stroke="#6495ed" stroke-width="5"/></g><g fill="#ffffff" stroke-miterlimit="10"><path d="M14300 15.09c-22.511 0-44.123 8.952-60.04 24.87-15.918 15.917-24.87 37.529-24.87 60.04 0 22.511 8.952 44.123 24.87 60.04 15.917 15.918 37.529 24.87 60.04 24.87 22.511 0 44.123-8.952 60.04-24.87 15.918-15.917 24.87-37.529 24.87-60.04 0-22.511-8.952-44.123-24.87-60.04-15.917-15.918-37.529-24.87-60.04-24.87z" stroke="#000000" stroke-width="20" stroke-dasharray="195.6156882413904,337.88164332603816" stroke-dashoffset="533.497332"/><path d="M14250.7 104.76l28.56 28.57 70.04-66.66" stroke="#6495ed" stroke-width="5"/></g><g fill="#ffffff" stroke-miterlimit="10"><path d="M14500 15.09c-22.511 0-44.123 8.952-60.04 24.87-15.918 15.917-24.87 37.529-24.87 60.04 0 22.511 8.952 44.123 24.87 60.04 15.917 15.918 37.529 24.87 60.04 24.87 22.511 0 44.123-8.952 60.04-24.87 15.918-15.917 24.87-37.529 24.87-60.04 0-22.511-8.952-44.123-24.87-60.04-15.917-15.918-37.529-24.87-60.04-24.87z" stroke="#000000" stroke-width="20" stroke-dasharray="213.39893262697143,320.0983989404571" stroke-dashoffset="533.497332"/><path d="M14450.7 104.76l28.56 28.57 70.04-66.66" stroke="#6495ed" stroke-width="5"/></g><g fill="#ffffff" stroke-miterlimit="10"><path d="M14700 15.09c-22.511 0-44.123 8.952-60.04 24.87-15.918 15.917-24.87 37.529-24.87 60.04 0 22.511 8.952 44.123 24.87 60.04 15.917 15.918 37.529 24.87 60.04 24.87 22.511 0 44.123-8.952 60.04-24.87 15.918-15.917 24.87-37.529 24.87-60.04 0-22.511-8.952-44.123-24.87-60.04-15.917-15.918-37.529-24.87-60.04-24.87z" stroke="#000000" stroke-width="20" stroke-dasharray="231.18217701255244,302.31515455487613" stroke-dashoffset="533.497332"/><path d="M14650.7 104.76l28.56 28.57 70.04-66.66" stroke="#6495ed" stroke-width="5"/></g><g fill="#ffffff" stroke-miterlimit="10"><path d="M14900 15.09c-22.511 0-44.123 8.952-60.04 24.87-15.918 15.917-24.87 37.529-24.87 60.04 0 22.511 8.952 44.123 24.87 60.04 15.917 15.918 37.529 24.87 60.04 24.87 22.511 0 44.123-8.952 60.04-24.87 15.918-15.917 24.87-37.529 24.87-60.04 0-22.511-8.952-44.123-24.87-60.04-15.917-15.918-37.529-24.87-60.04-24.87z" stroke="#000000" stroke-width="20" stroke-dasharray="248.96542139813323,284.53191016929526" stroke-dashoffset="533.497332"/><path d="M14850.7 104.76l28.56 28.57 70.04-66.66" stroke="#6495ed" stroke-width="5"/></g><g fill="#ffffff" stroke-miterlimit="10"><path d="M15100 15.09c-22.511 0-44.123 8.952-60.04 24.87-15.918 15.917-24.87 37.529-24.87 60.04 0 22.511 8.952 44.123 24.87 60.04 15.917 15.918 37.529 24.87 60.04 24.87 22.511 0 44.123-8.952 60.04-24.87 15.918-15.917 24.87-37.529 24.87-60.04 0-22.511-8.952-44.123-24.87-60.04-15.917-15.918-37.529-24.87-60.04-24.87z" stroke="#000000" stroke-width="20" stroke-dasharray="266.7486657837143,266.7486657837143" stroke-dashoffset="533.497332"/><path d="M15050.7 104.76l28.56 28.57 70.04-66.66" stroke="#6495ed" stroke-width="5"/></g><g fill="#ffffff" stroke-miterlimit="10"><path d="M15300 15.09c-22.511 0-44.123 8.952-60.04 24.87-15.918 15.917-24.87 37.529-24.87 60.04 0 22.511 8.952 44.123 24.87 60.04 15.917 15.918 37.529 24.87 60.04 24.87 22.511 0 44.123-8.952 60.04-24.87 15.918-15.917 24.87-37.529 24.87-60.04 0-22.511-8.952-44.123-24.87-60.04-15.917-15.918-37.529-24.87-60.04-24.87z" stroke="#000000" stroke-width="20" stroke-dasharray="284.53191016929526,248.96542139813326" stroke-dashoffset="533.497332"/><path d="M15250.7 104.76l28.56 28.57 70.04-66.66" stroke="#6495ed" stroke-width="5"/></g><g fill="#ffffff" stroke-miterlimit="10"><path d="M15500 15.09c-22.511 0-44.123 8.952-60.04 24.87-15.918 15.917-24.87 37.529-24.87 60.04 0 22.511 8.952 44.123 24.87 60.04 15.917 15.918 37.529 24.87 60.04 24.87 22.511 0 44.123-8.952 60.04-24.87 15.918-15.917 24.87-37.529 24.87-60.04 0-22.511-8.952-44.123-24.87-60.04-15.917-15.918-37.529-24.87-60.04-24.87z" stroke="#000000" stroke-width="20" stroke-dasharray="302.31515455487613,231.18217701255244" stroke-dashoffset="533.497332"/><path d="M15450.7 104.76l28.56 28.57 70.04-66.66" stroke="#6495ed" stroke-width="5"/></g><g fill="#ffffff" stroke-miterlimit="10"><path d="M15700 15.09c-22.511 0-44.123 8.952-60.04 24.87-15.918 15.917-24.87 37.529-24.87 60.04 0 22.511 8.952 44.123 24.87 60.04 15.917 15.918 37.529 24.87 60.04 24.87 22.511 0 44.123-8.952 60.04-24.87 15.918-15.917 24.87-37.529 24.87-60.04 0-22.511-8.952-44.123-24.87-60.04-15.917-15.918-37.529-24.87-60.04-24.87z" stroke="#000000" stroke-width="20" stroke-dasharray="320.0983989404571,213.39893262697143" stroke-dashoffset="533.497332"/><path d="M15650.7 104.76l28.56 28.57 70.04-66.66" stroke="#6495ed" stroke-width="5"/></g><g fill="#ffffff" stroke-miterlimit="10"><path d="M15900 15.09c-22.511 0-44.123 8.952-60.04 24.87-15.918 15.917-24.87 37.529-24.87 60.04 0 22.511 8.952 44.123 24.87 60.04 15.917 15.918 37.529 24.87 60.04 24.87 22.511 0 44.123-8.952 60.04-24.87 15.918-15.917 24.87-37.529 24.87-60.04 0-22.511-8.952-44.123-24.87-60.04-15.917-15.918-37.529-24.87-60.04-24.87z" stroke="#000000" stroke-width="20" stroke-dasharray="337.88164332603816,195.61568824139036" stroke-dashoffset="533.497332"/><path d="M15850.7 104.76l28.56 28.57 70.04-66.66" stroke="#6495ed" stroke-width="5"/></g><g fill="#ffffff" stroke-miterlimit="10"><path d="M16100 15.09c-22.511 0-44.123 8.952-60.04 24.87-15.918 15.917-24.87 37.529-24.87 60.04 0 22.511 8.952 44.123 24.87 60.04 15.917 15.918 37.529 24.87 60.04 24.87 22.511 0 44.123-8.952 60.04-24.87 15.918-15.917 24.87-37.529 24.87-60.04 0-22.511-8.952-44.123-24.87-60.04-15.917-15.918-37.529-24.87-60.04-24.87z" stroke="#000000" stroke-width="20" stroke-dasharray="355.664887711619,177.8324438558096" stroke-dashoffset="533.497332"/><path d="M16050.7 104.76l28.56 28.57 70.04-66.66" stroke="#6495ed" stroke-width="5"/></g><g fill="#ffffff" stroke-miterlimit="10"><path d="M16300 15.09c-22.511 0-44.123 8.952-60.04 24.87-15.918 15.917-24.87 37.529-24.87 60.04 0 22.511 8.952 44.123 24.87 60.04 15.917 15.918 37.529 24.87 60.04 24.87 22.511 0 44.123-8.952 60.04-24.87 15.918-15.917 24.87-37.529 24.87-60.04 0-22.511-8.952-44.123-24.87-60.04-15.917-15.918-37.529-24.87-60.04-24.87z" stroke="#000000" stroke-width="20" stroke-dasharray="373.44813209719996,160.0491994702286" stroke-dashoffset="533.497332"/><path d="M16250.7 104.76l28.56 28.57 70.04-66.66" stroke="#6495ed" stroke-width="5"/></g><g fill="#ffffff" stroke-miterlimit="10"><path d="M16500 15.09c-22.511 0-44.123 8.952-60.04 24.87-15.918 15.917-24.87 37.529-24.87 60.04 0 22.511 8.952 44.123 24.87 60.04 15.917 15.918 37.529 24.87 60.04 24.87 22.511 0 44.123-8.952 60.04-24.87 15.918-15.917 24.87-37.529 24.87-60.04 0-22.511-8.952-44.123-24.87-60.04-15.917-15.918-37.529-24.87-60.04-24.87z" stroke="#000000" stroke-width="20" stroke-dasharray="391.231376482781,142.26595508464752" stroke-dashoffset="533.497332"/><path d="M16450.7 104.76l28.56 28.57 70.04-66.66" stroke="#6495ed" stroke-width="5"/></g><g fill="#ffffff" stroke-miterlimit="10"><path d="M16700 15.09c-22.511 0-44.123 8.952-60.04 24.87-15.918 15.917-24.87 37.529-24.87 60.04 0 22.511 8.952 44.123 24.87 60.04 15.917 15.918 37.529 24.87 60.04 24.87 22.511 0 44.123-8.952 60.04-24.87 15.918-15.917 24.87-37.529 24.87-60.04 0-22.511-8.952-44.123-24.87-60.04-15.917-15.918-37.529-24.87-60.04-24.87z" stroke="#000000" stroke-width="20" stroke-dasharray="409.01462086836204,124.48271069906652" stroke-dashoffset="533.497332"/><path d="M16650.7 104.76l28.56 28.57 70.04-66.66" stroke="#6495ed" stroke-width="5"/></g><g fill="#ffffff" stroke-miterlimit="10"><path d="M16900 15.09c-22.511 0-44.123 8.952-60.04 24.87-15.918 15.917-24.87 37.529-24.87 60.04 0 22.511 8.952 44.123 24.87 60.04 15.917 15.918 37.529 24.87 60.04 24.87 22.511 0 44.123-8.952 60.04-24.87 15.918-15.917 24.87-37.529 24.87-60.04 0-22.511-8.952-44.123-24.87-60.04-15.917-15.918-37.529-24.87-60.04-24.87z" stroke="#000000" stroke-width="20" stroke-dasharray="426.79786525394286,106.69946631348569" stroke-dashoffset="533.497332"/><path d="M16850.7 104.76l28.56 28.57 70.04-66.66" stroke="#6495ed" stroke-width="5"/></g><g fill="#ffffff" stroke-miterlimit="10"><path d="M17100 15.09c-22.511 0-44.123 8.952-60.04 24.87-15.918 15.917-24.87 37.529-24.87 60.04 0 22.511 8.952 44.123 24.87 60.04 15.917 15.918 37.529 24.87 60.04 24.87 22.511 0 44.123-8.952 60.04-24.87 15.918-15.917 24.87-37.529 24.87-60.04 0-22.511-8.952-44.123-24.87-60.04-15.917-15.918-37.529-24.87-60.04-24.87z" stroke="#000000" stroke-width="20" stroke-dasharray="444.58110963952385,88.91622192790467" stroke-dashoffset="533.497332"/><path d="M17050.7 104.76l28.56 28.57 70.04-66.66" stroke="#6495ed" stroke-width="5"/></g><g fill="#ffffff" stroke-miterlimit="10"><path d="M17300 15.09c-22.511 0-44.123 8.952-60.04 24.87-15.918 15.917-24.87 37.529-24.87 60.04 0 22.511 8.952 44.123 24.87 60.04 15.917 15.918 37.529 24.87 60.04 24.87 22.511 0 44.123-8.952 60.04-24.87 15.918-15.917 24.87-37.529 24.87-60.04 0-22.511-8.952-44.123-24.87-60.04-15.917-15.918-37.529-24.87-60.04-24.87z" stroke="#000000" stroke-width="20" stroke-dasharray="462.3643540251049,71.13297754232367" stroke-dashoffset="533.497332"/><path d="M17250.7 104.76l28.56 28.57 70.04-66.66" stroke="#6495ed" stroke-width="5"/></g><g fill="#ffffff" stroke-miterlimit="10"><path d="M17500 15.09c-22.511 0-44.123 8.952-60.04 24.87-15.918 15.917-24.87 37.529-24.87 60.04 0 22.511 8.952 44.123 24.87 60.04 15.917 15.918 37.529 24.87 60.04 24.87 22.511 0 44.123-8.952 60.04-24.87 15.918-15.917 24.87-37.529 24.87-60.04 0-22.511-8.952-44.123-24.87-60.04-15.917-15.918-37.529-24.87-60.04-24.87z" stroke="#000000" stroke-width="20" stroke-dasharray="480.1475984106857,53.34973315674284" stroke-dashoffset="533.497332"/><path d="M17450.7 104.76l28.56 28.57 70.04-66.66" stroke="#6495ed" stroke-width="5"/></g><g fill="#ffffff" stroke-miterlimit="10"><path d="M17700 15.09c-22.511 0-44.123 8.952-60.04 24.87-15.918 15.917-24.87 37.529-24.87 60.04 0 22.511 8.952 44.123 24.87 60.04 15.917 15.918 37.529 24.87 60.04 24.87 22.511 0 44.123-8.952 60.04-24.87 15.918-15.917 24.87-37.529 24.87-60.04 0-22.511-8.952-44.123-24.87-60.04-15.917-15.918-37.529-24.87-60.04-24.87z" stroke="#000000" stroke-width="20" stroke-dasharray="497.93084279626646,35.56648877116207" stroke-dashoffset="533.497332"/><path d="M17650.7 104.76l28.56 28.57 70.04-66.66" stroke="#6495ed" stroke-width="5"/></g><g fill="#ffffff" stroke-miterlimit="10"><path d="M17900 15.09c-22.511 0-44.123 8.952-60.04 24.87-15.918 15.917-24.87 37.529-24.87 60.04 0 22.511 8.952 44.123 24.87 60.04 15.917 15.918 37.529 24.87 60.04 24.87 22.511 0 44.123-8.952 60.04-24.87 15.918-15.917 24.87-37.529 24.87-60.04 0-22.511-8.952-44.123-24.87-60.04-15.917-15.918-37.529-24.87-60.04-24.87z" stroke="#000000" stroke-width="20" stroke-dasharray="515.7140871818477,17.78324438558077" stroke-dashoffset="533.497332"/><path d="M17850.7 104.76l28.56 28.57 70.04-66.66" stroke="#6495ed" stroke-width="5"/></g><g fill="#ffffff" stroke-miterlimit="10"><path d="M18100 15.09c-22.511 0-44.123 8.952-60.04 24.87-15.918 15.917-24.87 37.529-24.87 60.04 0 22.511 8.952 44.123 24.87 60.04 15.917 15.918 37.529 24.87 60.04 24.87 22.511 0 44.123-8.952 60.04-24.87 15.918-15.917 24.87-37.529 24.87-60.04 0-22.511-8.952-44.123-24.87-60.04-15.917-15.918-37.529-24.87-60.04-24.87z" stroke="#000000" stroke-width="20"/><path d="M18050.7 104.76l28.56 28.57 70.04-66.66" stroke="#6495ed" stroke-width="5"/></g></svg>